<?xml version="1.0" encoding="UTF-8" standalone="no"?>
<!DOCTYPE svg PUBLIC "-//W3C//DTD SVG 1.1//EN" "http://www.w3.org/Graphics/SVG/1.1/DTD/svg11.dtd">
<svg width="100%" height="100%" viewBox="0 0 125 103" version="1.1" xmlns="http://www.w3.org/2000/svg" xmlns:xlink="http://www.w3.org/1999/xlink" xml:space="preserve" style="fill-rule:evenodd;clip-rule:evenodd;stroke-linejoin:round;stroke-miterlimit:1.41421;">
    <g id="web" transform="matrix(0.188289,0,0,0.188289,62.5,51.5)">
        <g transform="matrix(1,0,0,1,-256,-256)">
            <clipPath id="_clip1">
                <rect x="0" y="0" width="512" height="512"/>
            </clipPath>
            <g clip-path="url(#_clip1)">
                <g>
                    <path d="M469.333,0L42.667,0C19.114,0.028 0.028,19.114 0,42.667L0,469.334C0.028,492.886 19.114,511.972 42.667,512L469.334,512C492.886,511.972 511.972,492.886 512.001,469.333L512.001,42.667C511.972,19.114 492.886,0.028 469.333,0ZM494.933,469.333C494.933,483.471 483.472,494.933 469.333,494.933L42.667,494.933C28.529,494.933 17.067,483.472 17.067,469.333L17.067,85.333L494.934,85.333L494.934,469.333L494.933,469.333ZM494.933,68.267L17.067,68.267L17.067,42.667C17.067,28.529 28.529,17.067 42.667,17.067L469.334,17.067C483.472,17.067 494.934,28.529 494.934,42.667L494.934,68.267L494.933,68.267Z" style="fill:rgb(38,38,38);fill-rule:nonzero;"/>
                    <path d="M59.733,34.133L51.2,34.133C46.487,34.133 42.667,37.953 42.667,42.666C42.667,47.379 46.487,51.2 51.2,51.2L59.733,51.2C64.446,51.2 68.266,47.38 68.266,42.667C68.266,37.954 64.446,34.133 59.733,34.133Z" style="fill:rgb(38,38,38);fill-rule:nonzero;"/>
                    <path d="M97.109,34.816C95.049,33.877 92.683,33.877 90.624,34.816C89.59,35.249 88.638,35.855 87.808,36.608C84.508,39.973 84.508,45.36 87.808,48.725C88.638,49.478 89.59,50.084 90.624,50.517C92.69,51.427 95.043,51.427 97.109,50.517C98.143,50.084 99.095,49.478 99.925,48.725C103.225,45.36 103.225,39.973 99.925,36.608C99.095,35.855 98.143,35.249 97.109,34.816Z" style="fill:rgb(38,38,38);fill-rule:nonzero;"/>
                    <path d="M131.272,34.736C128.07,33.407 124.382,34.146 121.941,36.608C121.188,37.438 120.582,38.39 120.149,39.424C119.238,41.49 119.238,43.843 120.149,45.909C120.582,46.943 121.188,47.895 121.941,48.725C125.306,52.025 130.693,52.025 134.058,48.725C134.811,47.895 135.417,46.943 135.85,45.909C136.328,44.896 136.562,43.786 136.533,42.666C136.554,39.2 134.474,36.065 131.272,34.736Z" style="fill:rgb(38,38,38);fill-rule:nonzero;stroke:rgb(38,38,38);stroke-width:1px;"/>
                    <path d="M460.8,34.133L170.667,34.133C165.954,34.133 162.134,37.953 162.134,42.666C162.134,47.379 165.954,51.199 170.667,51.199L460.8,51.199C465.513,51.199 469.333,47.379 469.333,42.666C469.333,37.953 465.513,34.133 460.8,34.133Z" style="fill:rgb(38,38,38);fill-rule:nonzero;stroke:rgb(38,38,38);stroke-width:1px;"/>
                </g>
            </g>
        </g>
    </g>
    <g id="shield" transform="matrix(0.106899,0,0,0.10491,62.5,57.4268)">
        <g transform="matrix(1,0,0,1,-256,-256.001)">
            <clipPath id="_clip2">
                <rect x="0" y="0" width="512" height="512.001"/>
            </clipPath>
            <g clip-path="url(#_clip2)">
                <g id="surface1" transform="matrix(1,0,0,1,38,0)">
                    <path d="M217.996,158.457C164.203,158.457 120.441,202.219 120.441,256.008C120.441,309.801 164.203,353.563 217.996,353.563C271.785,353.563 315.547,309.801 315.547,256.008C315.547,202.219 271.785,158.457 217.996,158.457ZM275.914,237.637L206.027,307.523C203.094,310.457 199.246,311.926 195.402,311.926C191.559,311.926 187.715,310.461 184.781,307.523L158.074,280.816C152.207,274.953 152.207,265.441 158.074,259.574C163.938,253.707 173.449,253.707 179.316,259.574L195.402,275.66L254.672,216.395C260.535,210.527 270.047,210.527 275.914,216.395C281.781,222.258 281.781,231.77 275.914,237.637Z" style="fill:rgb(38,38,38);fill-rule:nonzero;"/>
                    <g transform="matrix(1,0,0,1,0.00173486,0.0009765)">
                        <path d="M435.488,138.918L435.473,138.52C435.25,133.602 435.102,128.398 435.012,122.609C434.594,94.379 412.152,71.027 383.918,69.449C325.051,66.164 279.512,46.969 240.602,9.043L240.27,8.727C227.578,-2.91 208.434,-2.91 195.738,8.727L195.406,9.043C156.496,46.969 110.957,66.164 52.09,69.453C23.859,71.027 1.414,94.379 0.996,122.613C0.91,128.363 0.758,133.566 0.535,138.52L0.512,139.445C-0.633,199.473 -2.055,274.18 22.938,341.988C36.68,379.277 57.492,411.691 84.793,438.336C115.887,468.68 156.613,492.77 205.84,509.934C207.441,510.492 209.105,510.945 210.801,511.285C213.191,511.762 215.598,512 218.004,512C220.41,512 222.82,511.762 225.207,511.285C226.902,510.945 228.578,510.488 230.188,509.926C279.355,492.73 320.039,468.629 351.105,438.289C378.395,411.637 399.207,379.215 412.961,341.918C438.047,273.906 436.629,199.059 435.488,138.918ZM217.996,383.605C147.637,383.605 90.398,326.367 90.398,256.008C90.398,185.648 147.637,128.41 217.996,128.41C288.352,128.41 345.594,185.648 345.594,256.008C345.594,326.367 288.352,383.605 217.996,383.605Z" style="fill:rgb(38,38,38);fill-rule:nonzero;"/>
                    </g>
                </g>
            </g>
        </g>
    </g>
</svg>
