<?xml version="1.0" encoding="UTF-8" standalone="no"?><!DOCTYPE svg PUBLIC "-//W3C//DTD SVG 1.1//EN" "http://www.w3.org/Graphics/SVG/1.1/DTD/svg11.dtd"><svg width="100%" height="100%" viewBox="0 0 125 103" version="1.1" xmlns="http://www.w3.org/2000/svg" xmlns:xlink="http://www.w3.org/1999/xlink" xml:space="preserve" style="fill-rule:evenodd;clip-rule:evenodd;stroke-linejoin:round;stroke-miterlimit:1.41421;"><g id="surface1"><path d="M62.499,32.995c-10.205,0 -18.507,8.302 -18.507,18.506c0,10.205 8.302,18.507 18.507,18.507c10.204,0 18.506,-8.302 18.506,-18.507c0,-10.204 -8.302,-18.506 -18.506,-18.506Zm10.988,15.021l-13.258,13.258c-0.557,0.557 -1.287,0.835 -2.016,0.835c-0.729,0 -1.458,-0.278 -2.015,-0.835l-5.066,-5.066c-1.113,-1.113 -1.113,-2.917 0,-4.03c1.112,-1.113 2.916,-1.113 4.029,0l3.052,3.052l11.244,-11.244c1.112,-1.113 2.917,-1.113 4.03,0c1.113,1.113 1.113,2.917 0,4.03Z" style="fill:#262626;fill-rule:nonzero;"/><path d="M103.759,29.289l-0.003,-0.076c-0.042,-0.933 -0.07,-1.92 -0.087,-3.018c-0.079,-5.356 -4.337,-9.786 -9.693,-10.085c-11.167,-0.623 -19.806,-4.265 -27.188,-11.459l-0.063,-0.061c-2.408,-2.207 -6.039,-2.207 -8.448,0l-0.063,0.061c-7.381,7.194 -16.02,10.836 -27.188,11.46c-5.356,0.298 -9.614,4.728 -9.693,10.085c-0.016,1.09 -0.045,2.078 -0.087,3.017l-0.005,0.176c-0.217,11.387 -0.487,25.56 4.255,38.424c2.607,7.074 6.555,13.223 11.734,18.277c5.899,5.757 13.625,10.327 22.963,13.583c0.304,0.106 0.62,0.192 0.942,0.256c0.453,0.091 0.91,0.136 1.366,0.136c0.457,0 0.914,-0.045 1.367,-0.136c0.321,-0.064 0.639,-0.151 0.944,-0.257c9.328,-3.262 17.046,-7.835 22.939,-13.59c5.177,-5.057 9.126,-11.207 11.735,-18.283c4.759,-12.902 4.49,-27.101 4.273,-38.51Zm-41.259,46.419c-13.348,0 -24.207,-10.859 -24.207,-24.206c0,-13.348 10.859,-24.207 24.207,-24.207c13.347,0 24.206,10.859 24.206,24.207c0,13.347 -10.859,24.206 -24.206,24.206Z" style="fill:#262626;fill-rule:nonzero;"/></g></svg>