<svg width="100%" height="100%" viewBox="0 0 125 103" version="1.1" xmlns="http://www.w3.org/2000/svg" xmlns:xlink="http://www.w3.org/1999/xlink" xml:space="preserve" style="fill-rule:evenodd;clip-rule:evenodd;stroke-linecap:round;stroke-linejoin:round;stroke-miterlimit:1.5;">
    <!--<rect id="Artboard1" x="0" y="0" width="125" height="102.825" style="fill:none;"/>-->
    <path d="M95.982,31.857l9.33,0.498l0.109,19.19l-11.229,0.677l1.79,-20.365Z" style="fill:#fff;stroke:#000;stroke-width:2.46px;"/>
    <path d="M29.799,31.857l-8.462,0.394l0,19.699l10.415,0.272l-1.953,-20.365Z" style="fill:#fff;stroke:#000;stroke-width:2.46px;"/>

    <g class="left-arm-piece">
        <path class="left-hand" d="M5.153,70.815l1.056,15.478l4.445,-2.306l-0.002,-4.957l5.896,0.038l-0.265,5.45l5.257,1.93l1.252,-15.768l-17.639,0.135Z" style="fill:#fff;stroke:#000;stroke-width:2.46px;"/>
        <path class="left-arm" d="M6.866,31.857l0.069,38.823l14.368,0l0.034,-38.823l-14.471,0Z" style="fill:#fff;stroke:#000;stroke-width:2.46px;"/>
    </g>

    <g class="right-arm-piece">
        <path class="right-arm" d="M119.12,31.857l-0.123,38.823l-13.576,0l0,-38.823l13.699,0Z" style="fill:#fff;stroke:#000;stroke-width:2.46px;"/>
        <path class="right-hand" d="M120.812,70.815l-1.056,15.478l-4.445,-2.306l0.002,-4.957l-5.896,0.038l0.266,5.45l-5.258,1.93l-1.252,-15.768l17.639,0.135Z" style="fill:#fff;stroke:#000;stroke-width:2.46px;"/>
    </g>

    <path d="M28.458,18.047l8.147,82.183l53.228,0.124l6.709,-82.314l-68.084,0.007Z" style="fill:#fff;stroke:#000;stroke-width:2.46px;"/>
    <path d="M50.663,9.895l2.427,-5.2l18.992,-1.032l3.326,5.823" style="fill:none;stroke:#000;stroke-width:2.46px;"/>
    <path d="M24.791,10.105l0.413,7.972l75.554,0l0.825,-8.591l-76.792,0.619Z" style="fill:#fff;stroke:#000;stroke-width:2.46px;"/>
    <path d="M40.594,24.93l7.596,68.534" style="fill:#fff;stroke:#ddd;stroke-width:3.83px;"/>
    <path d="M63.461,24.059l0.176,68.955" style="fill:#fff;stroke:#ddd;stroke-width:3.83px;"/>
    <path d="M86.156,23.975l-8.222,68.463" style="fill:#fff;stroke:#ddd;stroke-width:3.83px;"/>

    <g class="face">
    <path d="M86.584,35.714c0,-3.042 -2.469,-5.511 -5.511,-5.511l-36.074,0c-3.042,0 -5.511,2.469 -5.511,5.511l0,11.023c0,3.041 2.469,5.511 5.511,5.511l36.074,0c3.042,0 5.511,-2.47 5.511,-5.511l0,-11.023Z" style="fill:#fff;stroke:#000;stroke-width:3.37px;"/>
        <rect x="44.129" y="34.972" width="2.568" height="2.568"/>
        <rect x="50.689" y="34.972" width="2.568" height="2.568"/>
        <rect x="57.277" y="34.972" width="2.568" height="2.568" style="fill:#cacaca;"/>
        <rect x="63.807" y="34.972" width="2.568" height="2.568" style="fill:#cacaca;"/>
        <rect x="70.396" y="34.972" width="2.568" height="2.568"/>
        <rect x="76.955" y="34.972" width="2.568" height="2.568"/>
        <rect x="44.129" y="41.573" width="2.568" height="2.568"/>
        <rect x="50.689" y="41.573" width="2.568" height="2.568" style="fill:#cacaca;"/>
        <rect x="57.277" y="41.573" width="2.568" height="2.568" style="fill:#cacaca;"/>
        <rect x="63.807" y="41.573" width="2.568" height="2.568" style="fill:#cacaca;"/>
        <rect x="70.396" y="41.573" width="2.568" height="2.568"/>
        <rect x="76.955" y="41.573" width="2.568" height="2.568" style="fill:#cacaca;"/>
        <rect x="44.129" y="38.31" width="2.568" height="2.568"/>
        <rect x="50.689" y="38.31" width="2.568" height="2.568" style="fill:#cacaca;"/>
        <rect x="57.277" y="38.31" width="2.568" height="2.568" style="fill:#cacaca;"/>
        <rect x="63.807" y="38.31" width="2.568" height="2.568" style="fill:#cacaca;"/>
        <rect x="70.396" y="38.31" width="2.568" height="2.568"/>
        <rect x="76.955" y="38.31" width="2.568" height="2.568" style="fill:#cacaca;"/>
        <rect x="44.129" y="44.911" width="2.568" height="2.568"/>
        <rect x="50.689" y="44.911" width="2.568" height="2.568" style="fill:#cacaca;"/>
        <rect x="57.277" y="44.911" width="2.568" height="2.568" style="fill:#cacaca;"/>
        <rect x="63.807" y="44.911" width="2.568" height="2.568" style="fill:#cacaca;"/>
        <rect x="70.396" y="44.911" width="2.568" height="2.568"/>
        <rect x="76.955" y="44.911" width="2.568" height="2.568" style="fill:#cacaca;"/>
        <rect x="47.399" y="38.31" width="2.568" height="2.568" style="fill:#cacaca;"/>
        <rect x="53.958" y="38.31" width="2.568" height="2.568"/>
        <rect x="60.546" y="38.31" width="2.568" height="2.568" style="fill:#cacaca;"/>
        <rect x="67.077" y="38.31" width="2.568" height="2.568" style="fill:#cacaca;"/>
        <rect x="73.665" y="38.31" width="2.568" height="2.568" style="fill:#cacaca;"/>
        <rect x="80.224" y="38.31" width="2.568" height="2.568"/>
        <rect x="47.399" y="44.911" width="2.568" height="2.568" style="fill:#cacaca;"/>
        <rect x="53.958" y="44.911" width="2.568" height="2.568"/>
        <rect x="60.546" y="44.911" width="2.568" height="2.568" style="fill:#cacaca;"/>
        <rect x="67.077" y="44.911" width="2.568" height="2.568" style="fill:#cacaca;"/>
        <rect x="73.665" y="44.911" width="2.568" height="2.568" style="fill:#cacaca;"/>
        <rect x="80.224" y="44.911" width="2.568" height="2.568"/>
        <rect x="47.399" y="34.972" width="2.568" height="2.568"/>
        <rect x="53.958" y="34.972" width="2.568" height="2.568"/>
        <rect x="60.546" y="34.972" width="2.568" height="2.568" style="fill:#cacaca;"/>
        <rect x="67.077" y="34.972" width="2.568" height="2.568" style="fill:#cacaca;"/>
        <rect x="73.665" y="34.972" width="2.568" height="2.568"/>
        <rect x="80.224" y="34.972" width="2.568" height="2.568"/>
        <rect x="47.399" y="41.573" width="2.568" height="2.568" style="fill:#cacaca;"/>
        <rect x="53.958" y="41.573" width="2.568" height="2.568"/>
        <rect x="60.546" y="41.573" width="2.568" height="2.568" style="fill:#cacaca;"/>
        <rect x="67.077" y="41.573" width="2.568" height="2.568" style="fill:#cacaca;"/>
        <rect x="73.665" y="41.573" width="2.568" height="2.568" style="fill:#cacaca;"/>
        <rect x="80.224" y="41.573" width="2.568" height="2.568"/>
    </g>

    <circle cx="14.101" cy="38.916" r="3.123" style="fill:#fff;stroke:#ddd;stroke-width:3.37px;"/>
    <circle cx="112.648" cy="38.916" r="3.123" style="fill:#fff;stroke:#ddd;stroke-width:3.37px;"/>
</svg>
