<svg viewBox="0 0 125 103" xmlns="http://www.w3.org/2000/svg" fill-rule="evenodd" clip-rule="evenodd" stroke-linecap="round" stroke-linejoin="round" stroke-miterlimit="1.5">
  <path fill="none" d="M0 0h125v102.825H0z"/>
  <path d="M95.982 31.857l9.33.498.11 19.19-11.23.677 1.79-20.365zM29.8 31.857l-8.463.394v19.7l10.415.272L29.8 31.857z" fill="#fff" stroke="#000" stroke-width="2.46"/>
  <path d="M119.12 31.857l-.123 38.823H105.42V31.857h13.7zM6.866 31.857l.07 38.823h14.367l.034-38.823H6.867zM120.812 70.815l-1.056 15.478-4.445-2.306.003-4.957-5.896.038.266 5.45-5.258 1.93-1.252-15.768 17.64.135zM5.153 70.815L6.21 86.293l4.444-2.306-.002-4.957 5.896.038-.265 5.45 5.257 1.93 1.252-15.768-17.64.135zM28.707 18.084l8.147 82.183 53.228.124 6.71-82.313-68.085.007z" fill="#fff" stroke="#000" stroke-width="2.46"/>
  <path d="M50.663 9.895l2.427-5.2 18.992-1.032 3.326 5.823" fill="none" stroke="#000" stroke-width="2.46"/>
  <path d="M24.79 10.105l.414 7.972h75.554l.825-8.59-76.792.618z" fill="#fff" stroke="#000" stroke-width="2.46"/>
  <path d="M40.594 24.93l7.596 68.534M63.46 24.06l.177 68.954M86.156 23.975l-8.222 68.463" fill="#fff" stroke="#ddd" stroke-width="3.83"/>
  <path d="M86.584 35.714c0-3.042-2.47-5.51-5.51-5.51H44.998c-3.043 0-5.512 2.468-5.512 5.51v11.023c0 3.04 2.47 5.51 5.51 5.51h36.075c3.042 0 5.51-2.47 5.51-5.51V35.714z" fill="#fff" stroke="#000" stroke-width="3.37"/>
  <path d="M44.13 34.972h2.567v2.568H44.13zM50.69 34.972h2.567v2.568H50.69z"/>
  <path fill="#cacaca" d="M57.277 34.972h2.568v2.568h-2.568zM63.807 34.972h2.568v2.568h-2.568z"/>
  <path d="M70.396 34.972h2.568v2.568h-2.568zM76.955 34.972h2.568v2.568h-2.568zM44.13 41.573h2.567v2.568H44.13z"/>
  <path fill="#cacaca" d="M50.69 41.573h2.567v2.568H50.69zM57.277 41.573h2.568v2.568h-2.568zM63.807 41.573h2.568v2.568h-2.568z"/>
  <path d="M70.396 41.573h2.568v2.568h-2.568z"/>
  <path fill="#cacaca" d="M76.955 41.573h2.568v2.568h-2.568z"/>
  <path d="M44.13 38.31h2.567v2.568H44.13z"/>
  <path fill="#cacaca" d="M50.69 38.31h2.567v2.568H50.69zM57.277 38.31h2.568v2.568h-2.568zM63.807 38.31h2.568v2.568h-2.568z"/>
  <path d="M70.396 38.31h2.568v2.568h-2.568z"/>
  <path fill="#cacaca" d="M76.955 38.31h2.568v2.568h-2.568z"/>
  <path d="M44.13 44.91h2.567v2.57H44.13z"/>
  <path fill="#cacaca" d="M50.69 44.91h2.567v2.57H50.69zM57.277 44.91h2.568v2.57h-2.568zM63.807 44.91h2.568v2.57h-2.568z"/>
  <path d="M70.396 44.91h2.568v2.57h-2.568z"/>
  <path fill="#cacaca" d="M76.955 44.91h2.568v2.57h-2.568zM47.4 38.31h2.567v2.568H47.4z"/>
  <path d="M53.958 38.31h2.568v2.568h-2.568z"/>
  <path fill="#cacaca" d="M60.546 38.31h2.568v2.568h-2.568zM67.077 38.31h2.568v2.568h-2.568zM73.665 38.31h2.568v2.568h-2.568z"/>
  <path d="M80.224 38.31h2.568v2.568h-2.568z"/>
  <path fill="#cacaca" d="M47.4 44.91h2.567v2.57H47.4z"/>
  <path d="M53.958 44.91h2.568v2.57h-2.568z"/>
  <path fill="#cacaca" d="M60.546 44.91h2.568v2.57h-2.568zM67.077 44.91h2.568v2.57h-2.568zM73.665 44.91h2.568v2.57h-2.568z"/>
  <path d="M80.224 44.91h2.568v2.57h-2.568zM47.4 34.972h2.567v2.568H47.4zM53.958 34.972h2.568v2.568h-2.568z"/>
  <path fill="#cacaca" d="M60.546 34.972h2.568v2.568h-2.568zM67.077 34.972h2.568v2.568h-2.568z"/>
  <path d="M73.665 34.972h2.568v2.568h-2.568zM80.224 34.972h2.568v2.568h-2.568z"/>
  <path fill="#cacaca" d="M47.4 41.573h2.567v2.568H47.4z"/>
  <path d="M53.958 41.573h2.568v2.568h-2.568z"/>
  <path fill="#cacaca" d="M60.546 41.573h2.568v2.568h-2.568zM67.077 41.573h2.568v2.568h-2.568zM73.665 41.573h2.568v2.568h-2.568z"/>
  <path d="M80.224 41.573h2.568v2.568h-2.568z"/>
  <circle cx="14.101" cy="38.916" r="3.123" fill="#fff" stroke="#ddd" stroke-width="3.37"/>
  <circle cx="112.648" cy="38.916" r="3.123" fill="#fff" stroke="#ddd" stroke-width="3.37"/>
</svg>
